<?xml version="1.0" standalone="no"?>
<!DOCTYPE svg PUBLIC "-//W3C//DTD SVG 20010904//EN"
 "http://www.w3.org/TR/2001/REC-SVG-20010904/DTD/svg10.dtd">
<svg version="1.0" xmlns="http://www.w3.org/2000/svg"
 width="1960.000000pt" height="1960.000000pt" viewBox="0 0 1960.000000 1960.000000"
 preserveAspectRatio="xMidYMid meet">

<g transform="translate(0.000000,1960.000000) scale(0.100000,-0.100000)"
fill="#000000" stroke="none">
<path d="M10815 16894 c-164 -26 -329 -119 -435 -246 -130 -156 -132 -162
-275 -993 -20 -115 -42 -244 -50 -285 -7 -41 -23 -129 -34 -195 -12 -66 -39
-223 -61 -350 -42 -235 -70 -398 -135 -770 -20 -115 -52 -295 -70 -400 -19
-104 -50 -284 -70 -400 -20 -115 -52 -295 -70 -400 -18 -104 -50 -282 -69
-395 -35 -199 -137 -783 -176 -1005 -32 -183 -89 -507 -130 -745 -21 -124 -78
-445 -125 -715 -47 -269 -95 -539 -105 -600 -26 -148 -389 -2225 -610 -3483
-38 -218 -94 -541 -125 -717 -31 -176 -110 -628 -177 -1005 -136 -769 -141
-815 -99 -965 35 -127 84 -208 186 -311 75 -76 104 -98 175 -132 124 -60 195
-77 325 -76 214 1 397 83 529 239 111 130 147 221 196 505 37 214 188 1079
225 1285 13 77 52 298 85 490 33 193 74 424 90 515 30 168 113 645 240 1370
39 223 102 583 140 800 38 217 103 591 145 830 68 387 129 738 240 1370 19
107 52 299 74 425 49 278 583 3335 640 3660 22 127 99 563 170 970 183 1049
174 989 167 1072 -28 307 -235 560 -522 638 -60 16 -234 27 -289 19z m160
-365 c162 -30 272 -153 283 -314 3 -49 -4 -114 -22 -215 -34 -192 -86 -486
-131 -745 -20 -115 -56 -322 -80 -460 -24 -137 -71 -407 -105 -600 -34 -192
-81 -462 -105 -600 -24 -137 -78 -443 -119 -680 -41 -236 -129 -738 -195
-1115 -66 -377 -145 -827 -175 -1000 -87 -496 -223 -1273 -266 -1520 -22 -124
-78 -445 -125 -715 -47 -269 -110 -629 -140 -800 -48 -275 -173 -989 -371
-2120 -35 -203 -85 -487 -110 -630 -25 -143 -60 -345 -79 -450 -18 -104 -59
-336 -90 -515 -106 -610 -125 -715 -141 -763 -20 -61 -101 -150 -168 -184 -74
-38 -198 -44 -281 -12 -71 27 -149 99 -185 174 -34 70 -34 191 3 385 24 127
236 1335 332 1890 19 107 50 287 70 400 20 113 60 345 90 515 30 171 92 529
139 797 108 614 221 1258 247 1408 11 63 45 257 75 430 30 173 64 365 74 425
45 258 102 583 324 1850 129 737 253 1448 276 1580 23 132 55 312 70 400 16
88 63 358 105 600 75 428 106 605 178 1020 20 110 54 304 76 430 22 127 47
271 56 320 9 50 31 182 51 295 54 318 60 335 138 418 46 49 117 89 180 102 58
11 56 11 121 -1z"/>
<path d="M6375 14385 c-83 -18 -110 -27 -185 -65 -105 -53 -117 -63 -450 -385
-128 -123 -273 -262 -855 -820 -220 -211 -486 -467 -930 -895 -190 -183 -396
-381 -510 -491 -55 -52 -163 -156 -240 -230 -247 -238 -375 -360 -655 -629
-606 -581 -655 -634 -713 -776 -42 -105 -52 -162 -52 -299 0 -143 18 -221 76
-339 55 -110 102 -161 559 -601 281 -270 379 -364 495 -475 66 -63 230 -221
364 -350 134 -129 247 -237 252 -240 5 -3 66 -62 136 -130 71 -68 189 -183
263 -254 74 -72 198 -191 275 -266 77 -74 255 -245 395 -380 140 -135 316
-303 390 -375 74 -71 180 -172 235 -225 55 -52 165 -158 245 -235 576 -557
612 -590 720 -645 188 -96 434 -106 631 -26 100 40 169 87 259 176 74 74 93
100 138 190 113 231 111 477 -5 704 -42 81 -63 107 -188 231 -77 78 -192 190
-255 250 -63 60 -173 165 -245 235 -71 69 -245 236 -385 370 -140 134 -313
301 -385 370 -71 69 -193 187 -270 261 -77 73 -203 195 -280 269 -144 139
-282 272 -510 489 -71 69 -189 181 -260 250 -72 69 -236 227 -365 351 -129
124 -275 264 -325 312 l-90 88 105 103 c58 56 162 156 230 221 132 126 287
275 510 491 75 71 185 177 245 235 276 263 753 722 1280 1230 61 58 166 160
235 226 68 65 188 180 265 255 77 74 194 187 260 250 353 337 376 362 440 489
68 135 93 331 61 491 -57 283 -286 521 -568 589 -96 23 -249 25 -343 5z m303
-373 c105 -40 188 -123 233 -233 30 -72 32 -202 5 -274 -36 -94 -69 -130 -456
-501 -151 -144 -348 -334 -530 -509 -74 -72 -196 -189 -270 -260 -74 -72 -137
-132 -140 -135 -5 -6 -457 -439 -635 -610 -60 -58 -170 -164 -245 -236 -74
-71 -252 -242 -395 -379 -249 -238 -315 -301 -630 -606 -77 -75 -193 -187
-259 -250 -124 -119 -146 -152 -146 -219 0 -79 4 -84 360 -424 63 -61 185
-178 270 -261 188 -182 566 -545 624 -599 22 -21 84 -80 136 -130 52 -50 160
-154 240 -231 80 -77 201 -194 270 -260 69 -67 240 -231 380 -365 257 -247
801 -770 831 -799 8 -9 102 -99 209 -201 313 -300 333 -321 362 -382 79 -161
55 -326 -63 -453 -132 -140 -315 -171 -484 -82 -58 31 -100 70 -495 452 -79
77 -154 149 -166 160 -11 11 -77 74 -145 139 -68 66 -167 160 -219 210 -52 50
-158 152 -235 226 -261 252 -648 624 -1055 1015 -223 214 -450 433 -505 486
-55 54 -113 110 -130 124 -16 15 -79 75 -140 134 -168 162 -367 355 -609 586
-414 397 -433 417 -461 477 -56 123 -55 243 5 364 25 51 63 92 227 250 109
104 261 250 338 324 77 75 201 194 275 265 74 71 187 179 250 240 63 61 169
163 235 226 295 283 693 665 835 803 86 83 212 205 280 271 69 65 179 171 245
235 66 63 226 216 355 340 129 124 293 282 365 351 516 498 699 670 737 693
99 58 237 69 346 28z"/>
<path d="M12885 14381 c-156 -42 -261 -104 -370 -216 -178 -182 -251 -433
-199 -683 34 -166 112 -300 250 -432 162 -154 563 -539 688 -660 71 -69 134
-129 140 -135 12 -11 105 -100 551 -531 154 -148 395 -380 535 -514 331 -317
693 -664 850 -816 69 -66 234 -225 368 -354 133 -128 242 -236 242 -239 0 -8
-76 -83 -445 -436 -143 -137 -307 -295 -365 -350 -58 -56 -161 -155 -230 -221
-121 -116 -279 -268 -525 -505 -66 -63 -248 -238 -405 -389 -157 -151 -341
-329 -410 -395 -69 -67 -179 -172 -245 -235 -66 -63 -178 -171 -250 -240 -71
-70 -179 -173 -240 -231 -273 -258 -350 -338 -395 -406 -168 -254 -173 -571
-14 -836 46 -76 171 -200 247 -246 209 -124 468 -146 687 -58 133 54 186 97
505 406 77 75 244 235 370 356 126 121 284 272 350 335 66 64 242 233 390 375
149 143 329 316 400 386 72 69 188 182 260 250 121 116 205 196 510 491 66 63
134 128 151 144 17 16 136 130 265 254 128 124 355 342 504 484 479 460 596
578 641 647 136 209 162 471 70 705 -43 112 -105 191 -282 365 -151 148 -838
809 -1114 1073 -58 55 -168 161 -245 235 -77 75 -246 237 -375 361 -129 124
-365 351 -525 505 -159 153 -346 333 -415 400 -120 115 -251 241 -500 480 -63
61 -223 214 -355 341 -460 441 -434 419 -551 478 -105 52 -172 67 -319 72
-106 3 -143 1 -200 -15z m280 -357 c103 -26 124 -42 320 -232 241 -233 348
-337 725 -697 206 -197 434 -415 505 -485 72 -69 191 -184 265 -255 74 -71
137 -132 140 -135 3 -3 59 -57 125 -120 66 -63 190 -182 275 -265 167 -162
556 -535 624 -599 59 -56 475 -456 651 -626 83 -79 200 -192 260 -251 61 -58
158 -151 216 -208 111 -106 151 -165 175 -255 19 -70 17 -133 -5 -205 -29 -93
-60 -138 -172 -245 -57 -54 -151 -145 -209 -201 -58 -55 -222 -213 -365 -350
-143 -137 -316 -303 -385 -370 -69 -66 -181 -175 -250 -241 -261 -250 -640
-614 -770 -740 -74 -72 -151 -146 -170 -164 -19 -18 -87 -83 -150 -144 -63
-61 -219 -210 -345 -331 -236 -227 -397 -381 -615 -591 -669 -645 -709 -682
-762 -707 -161 -76 -324 -53 -452 64 -147 134 -175 355 -65 515 15 22 85 97
156 165 296 289 374 363 382 369 8 4 165 156 675 650 71 69 139 134 151 145
12 11 73 70 136 130 63 61 222 214 354 340 132 127 301 289 375 360 74 72 194
187 265 255 72 68 195 187 275 265 80 77 255 246 390 375 134 129 296 285 358
345 120 115 142 148 142 215 0 85 48 34 -805 855 -159 153 -333 320 -385 371
-52 51 -105 102 -118 112 -12 11 -136 129 -275 263 -279 270 -472 456 -497
479 -9 8 -128 123 -266 255 -239 231 -682 657 -944 909 -271 260 -343 333
-370 371 -86 125 -86 314 0 440 103 150 267 213 435 169z"/>
</g>
</svg>
