<?xml version="1.0" standalone="no"?>
<!DOCTYPE svg PUBLIC "-//W3C//DTD SVG 20010904//EN"
 "http://www.w3.org/TR/2001/REC-SVG-20010904/DTD/svg10.dtd">
<svg version="1.0" xmlns="http://www.w3.org/2000/svg"
 width="1024.000000pt" height="1024.000000pt" viewBox="0 0 1024.000000 1024.000000"
 preserveAspectRatio="xMidYMid meet">

<g transform="translate(0.000000,1024.000000) scale(0.100000,-0.100000)"
fill="#000000" stroke="none">
<path d="M2978 6877 c-41 -25 -73 -61 -88 -102 -6 -15 -51 -242 -101 -504 -49
-262 -105 -555 -124 -651 -19 -96 -77 -398 -130 -670 -52 -272 -118 -610 -146
-750 -29 -140 -52 -277 -52 -305 -2 -168 197 -257 306 -136 19 21 39 54 45 72
12 36 75 356 212 1064 44 231 142 728 216 1105 147 742 150 765 104 829 -48
68 -170 93 -242 48z m149 -99 c11 -13 24 -33 27 -45 4 -12 -32 -219 -83 -485
-50 -254 -172 -881 -271 -1392 -99 -511 -185 -946 -190 -966 -14 -51 -50 -82
-95 -82 -44 0 -73 24 -80 66 -4 20 27 203 84 496 77 398 341 1758 431 2222 29
151 32 160 58 191 23 26 93 23 119 -5z"/>
<path d="M2110 6240 c-19 -10 -220 -204 -447 -432 -406 -408 -412 -414 -428
-472 -20 -68 -16 -145 10 -197 24 -47 820 -845 870 -872 127 -67 271 25 269
173 -1 31 -8 70 -18 90 -10 19 -172 189 -359 377 l-341 343 350 352 c384 385
380 380 372 489 -5 67 -38 118 -98 150 -46 25 -133 24 -180 -1z m141 -80 c31
-17 52 -67 44 -109 -5 -31 -58 -87 -360 -391 -194 -195 -358 -365 -364 -377
-6 -12 -11 -29 -11 -39 0 -9 160 -178 355 -374 195 -197 359 -370 365 -384 18
-49 12 -85 -19 -117 -38 -38 -76 -38 -127 0 -21 16 -206 197 -411 402 -379
381 -403 410 -403 481 1 77 28 109 438 520 384 385 398 398 435 398 21 0 47
-5 58 -10z"/>
<path d="M3491 6229 c-78 -56 -103 -165 -58 -247 12 -23 175 -196 363 -385
l341 -343 -353 -360 c-345 -354 -352 -362 -364 -415 -35 -154 107 -282 248
-224 25 11 170 149 454 432 470 470 465 463 455 584 -3 37 -15 84 -26 106 -24
46 -823 844 -868 867 -19 9 -57 16 -91 16 -50 0 -65 -5 -101 -31z m158 -74
c34 -17 788 -780 806 -815 23 -44 27 -90 15 -139 -12 -42 -49 -82 -419 -454
-372 -373 -409 -407 -439 -407 -37 0 -71 15 -89 39 -16 20 -17 85 -2 114 6 12
170 182 365 377 303 304 354 360 354 385 0 25 -52 82 -365 395 -265 266 -365
373 -367 391 -3 53 4 75 32 102 34 30 67 34 109 12z"/>
<path d="M5357 6202 c-49 -54 19 -127 76 -81 31 23 34 45 11 77 -19 27 -64 29
-87 4z"/>
<path d="M6957 6202 c-36 -40 -11 -95 43 -95 36 0 60 23 60 58 0 48 -70 73
-103 37z"/>
<path d="M8072 6100 l-31 -90 44 0 43 0 28 73 c15 39 31 80 36 90 8 15 3 17
-41 17 l-49 0 -30 -90z"/>
<path d="M5682 6036 c-49 -16 -78 -39 -98 -78 -22 -42 -18 -48 36 -48 38 0 52
4 59 19 23 42 121 49 156 11 9 -10 17 -30 18 -46 2 -25 -2 -29 -38 -36 -22 -4
-62 -7 -90 -8 -56 -1 -120 -26 -149 -58 -26 -29 -32 -108 -13 -154 21 -50 65
-72 143 -71 45 0 73 7 103 24 23 12 41 26 41 31 0 4 5 8 10 8 6 0 10 -13 10
-30 0 -29 1 -30 51 -30 l51 0 -4 189 c-3 212 -8 228 -80 264 -49 24 -152 31
-206 13z m178 -267 c0 -26 -16 -57 -48 -91 -21 -23 -35 -28 -71 -28 -52 0 -81
21 -81 60 0 41 31 62 102 70 100 12 98 12 98 -11z"/>
<path d="M6255 6035 c-22 -8 -48 -24 -57 -36 l-18 -21 0 31 c0 31 0 31 -55 31
l-55 0 0 -235 0 -235 55 0 55 0 0 140 c0 199 22 240 125 240 l50 0 -3 50 c-4
47 -6 50 -30 50 -15 -1 -45 -7 -67 -15z"/>
<path d="M7755 6045 c-5 -2 -22 -6 -37 -9 -37 -8 -95 -60 -121 -110 -29 -54
-30 -183 -3 -236 44 -84 108 -123 206 -124 89 0 152 30 192 93 l29 46 -56 3
c-49 3 -58 0 -78 -23 -46 -53 -147 -38 -187 27 -41 67 -40 68 148 68 l168 0
-7 58 c-9 73 -20 101 -59 146 -41 46 -143 78 -195 61z m117 -114 c15 -14 30
-38 33 -53 l7 -28 -116 0 c-78 0 -116 4 -116 11 0 6 7 26 15 44 32 67 122 80
177 26z"/>
<path d="M8288 6035 c-63 -21 -98 -63 -98 -120 0 -91 36 -123 170 -150 95 -19
110 -27 110 -60 0 -28 -27 -53 -66 -61 -39 -8 -104 19 -111 46 -5 17 -14 20
-64 20 -58 0 -58 0 -49 -25 31 -81 97 -120 205 -119 138 1 211 70 191 179 -10
53 -57 83 -166 105 -51 10 -96 22 -102 28 -18 18 -4 66 24 81 35 20 99 5 113
-26 8 -20 17 -23 68 -23 56 0 58 1 51 23 -12 39 -42 74 -80 92 -50 24 -139 28
-196 10z"/>
<path d="M4903 5933 c40 -60 77 -113 80 -119 4 -6 -29 -64 -73 -128 l-80 -116
60 0 59 0 51 75 c28 41 52 75 54 75 2 0 25 -34 52 -75 l49 -75 63 0 62 0 -22
35 c-13 19 -49 73 -82 119 l-58 85 72 103 c40 57 78 109 83 116 7 9 -5 12 -56
12 l-65 0 -48 -75 c-26 -41 -49 -75 -50 -75 -1 0 -24 34 -50 75 l-47 75 -64 0
-64 0 74 -107z"/>
<path d="M5340 5805 l0 -235 60 0 60 0 0 235 0 235 -60 0 -60 0 0 -235z"/>
<path d="M6420 5866 c0 -99 5 -187 11 -203 38 -102 180 -132 269 -57 l30 26 0
-31 c0 -31 0 -31 55 -31 l55 0 0 235 0 235 -55 0 -55 0 0 -140 c0 -147 -9
-189 -46 -221 -41 -35 -110 -31 -140 9 -10 12 -13 63 -14 185 l0 167 -55 0
-55 0 0 -174z"/>
<path d="M6940 5805 l0 -235 60 0 60 0 0 235 0 235 -60 0 -60 0 0 -235z"/>
<path d="M7150 5995 l0 -45 115 0 c63 0 115 -3 115 -7 0 -3 -52 -71 -116 -150
-101 -125 -117 -150 -118 -184 l-2 -39 198 0 198 0 0 45 0 45 -125 0 c-69 0
-125 3 -125 6 0 4 52 71 115 150 104 130 115 147 115 184 l0 40 -185 0 -185 0
0 -45z"/>
<path d="M4870 5071 l0 -321 55 0 55 0 0 109 0 109 108 4 c91 3 114 7 152 28
66 36 92 93 88 186 -4 90 -34 141 -105 175 -43 21 -64 24 -200 27 l-153 4 0
-321z m301 209 c27 -15 49 -63 49 -109 0 -31 -7 -49 -29 -73 -28 -32 -32 -33
-120 -36 l-91 -4 0 116 0 116 86 0 c47 0 94 -5 105 -10z"/>
<path d="M8220 5070 l0 -320 55 0 55 0 0 320 0 320 -55 0 -55 0 0 -320z"/>
<path d="M5495 5204 c-93 -50 -129 -121 -124 -242 4 -70 8 -86 34 -124 96
-135 320 -125 394 19 6 12 11 23 11 25 0 2 -25 2 -55 1 -44 -1 -59 -6 -73 -23
-12 -15 -33 -24 -63 -27 -62 -7 -105 16 -129 70 l-19 42 171 3 171 2 -6 56
c-7 72 -42 140 -90 178 -35 28 -47 31 -115 34 -56 2 -85 -2 -107 -14z m148
-75 c26 -12 57 -57 57 -83 0 -14 -16 -16 -110 -16 -105 0 -110 1 -110 21 0 12
15 36 34 55 37 37 82 45 129 23z"/>
<path d="M6043 5195 c-41 -23 -43 -23 -43 -4 0 16 -7 19 -55 19 l-55 0 0 -230
0 -230 55 0 55 0 0 143 c0 195 22 236 128 237 l42 0 0 45 0 45 -42 0 c-27 0
-59 -9 -85 -25z"/>
<path d="M6305 5206 c-47 -20 -85 -71 -85 -113 0 -87 53 -131 185 -153 81 -13
95 -22 95 -61 0 -77 -156 -76 -182 2 -2 6 -27 9 -61 7 l-58 -3 24 -45 c35 -68
90 -95 192 -95 129 0 195 50 195 147 0 24 -7 54 -16 66 -23 33 -83 60 -159 72
-37 6 -76 15 -86 21 -24 12 -24 51 -1 72 34 31 132 17 132 -18 0 -12 14 -15
61 -15 58 0 60 1 54 23 -22 72 -83 107 -190 106 -38 0 -84 -6 -100 -13z"/>
<path d="M6795 5202 c-83 -40 -125 -116 -125 -226 0 -162 127 -262 287 -226
63 14 114 53 146 114 16 31 22 59 22 116 0 95 -30 160 -94 205 -37 26 -53 30
-119 33 -59 2 -86 -2 -117 -16z m156 -78 c39 -20 59 -68 59 -144 0 -98 -39
-150 -113 -150 -111 0 -160 189 -72 277 37 37 77 43 126 17z"/>
<path d="M7390 5213 c-8 -3 -27 -15 -42 -25 -28 -19 -28 -19 -28 1 0 19 -6 21
-55 21 l-55 0 0 -230 0 -230 55 0 55 0 0 133 c0 154 9 196 51 231 50 42 119
29 139 -27 5 -16 10 -99 10 -183 l0 -154 55 0 55 0 0 180 c0 204 -8 237 -62
270 -25 15 -49 20 -98 19 -36 0 -72 -3 -80 -6z"/>
<path d="M7808 5200 c-38 -20 -70 -59 -82 -97 -7 -22 -5 -23 48 -23 42 0 56 4
56 14 0 24 42 46 88 46 50 0 92 -33 92 -73 0 -28 -21 -37 -87 -37 -79 0 -145
-20 -180 -55 -30 -30 -33 -39 -33 -93 0 -50 4 -66 26 -91 55 -66 188 -65 262
2 l22 20 0 -31 c0 -32 0 -32 51 -32 l50 0 -3 189 c-3 212 -8 228 -79 263 -50
25 -182 24 -231 -2z m206 -257 c-19 -77 -60 -116 -123 -116 -46 0 -59 7 -72
40 -19 51 18 81 120 93 36 4 69 8 74 9 4 0 4 -11 1 -26z"/>
<path d="M4870 4250 l0 -322 168 4 c155 3 170 5 212 28 64 36 90 79 90 150 0
67 -27 117 -77 140 -38 17 -41 26 -13 35 11 3 28 19 39 34 55 76 28 181 -57
223 -42 20 -65 23 -204 26 l-158 4 0 -322z m308 207 c29 -27 35 -62 17 -101
-21 -44 -51 -56 -140 -56 l-75 0 0 91 0 91 89 -4 c69 -2 94 -7 109 -21z m23
-276 c32 -33 37 -67 14 -110 -19 -38 -30 -41 -141 -41 l-94 0 0 90 0 90 96 0
c92 0 97 -1 125 -29z"/>
<path d="M5420 4250 l0 -320 55 0 55 0 0 320 0 320 -55 0 -55 0 0 -320z"/>
<path d="M5756 4395 c-89 -32 -140 -117 -139 -232 2 -147 86 -233 230 -233
139 0 223 90 223 240 0 91 -21 143 -76 188 -63 52 -156 67 -238 37z m156 -92
c65 -58 64 -209 -2 -268 -15 -13 -36 -20 -65 -20 -72 0 -115 58 -115 155 0
100 52 166 123 157 21 -3 48 -14 59 -24z"/>
<path d="M6255 4396 c-123 -53 -152 -283 -51 -394 71 -79 211 -82 258 -4 l17
27 1 -58 c0 -96 -35 -137 -120 -137 -30 0 -43 6 -63 30 -23 27 -31 30 -86 30
-34 0 -61 -4 -61 -9 0 -22 50 -79 90 -101 37 -20 59 -24 120 -25 90 0 138 16
178 56 45 46 52 93 52 353 l0 236 -50 0 c-50 0 -50 0 -50 -32 l0 -32 -27 26
c-16 15 -41 32 -56 37 -38 15 -115 13 -152 -3z m172 -88 c43 -35 66 -143 43
-203 -29 -76 -117 -100 -170 -47 -61 61 -60 184 2 246 25 25 34 28 69 23 22
-3 47 -11 56 -19z"/>
</g>
</svg>
